<?xml version="1.0" encoding="UTF-8" standalone="no"?>
<!-- Created with Inkscape (http://www.inkscape.org/) -->

<svg
   width="64"
   height="64"
   viewBox="0 0 16.933331 16.933331"
   version="1.1"
   id="svg5"
   inkscape:version="1.2 (dc2aedaf03, 2022-05-15)"
   sodipodi:docname="icons.svg"
   inkscape:export-filename="tts-assets\st-check.png"
   inkscape:export-xdpi="96"
   inkscape:export-ydpi="96"
   xmlns:inkscape="http://www.inkscape.org/namespaces/inkscape"
   xmlns:sodipodi="http://sodipodi.sourceforge.net/DTD/sodipodi-0.dtd"
   xmlns="http://www.w3.org/2000/svg"
   xmlns:svg="http://www.w3.org/2000/svg">
  <sodipodi:namedview
     id="namedview7"
     pagecolor="#ffffff"
     bordercolor="#666666"
     borderopacity="1.0"
     inkscape:showpageshadow="2"
     inkscape:pageopacity="0.0"
     inkscape:pagecheckerboard="0"
     inkscape:deskcolor="#d1d1d1"
     inkscape:document-units="mm"
     showgrid="false"
     inkscape:zoom="5.0495043"
     inkscape:cx="44.855888"
     inkscape:cy="34.656867"
     inkscape:window-width="2560"
     inkscape:window-height="1377"
     inkscape:window-x="1912"
     inkscape:window-y="-8"
     inkscape:window-maximized="1"
     inkscape:current-layer="layer8" />
  <defs
     id="defs2" />
  <g
     inkscape:label="los"
     inkscape:groupmode="layer"
     id="layer1"
     style="display:none">
    <path
       style="fill:#ffffff;stroke:#000000;stroke-width:0.529189;stroke-linecap:round;stroke-linejoin:round;stroke-dasharray:none"
       id="path184"
       sodipodi:type="arc"
       sodipodi:cx="-15.837167"
       sodipodi:cy="-3.7845323"
       sodipodi:rx="10.927093"
       sodipodi:ry="10.927093"
       sodipodi:start="0"
       sodipodi:end="1.5707963"
       sodipodi:arc-type="slice"
       d="M -4.9100742,-3.7845323 A 10.927093,10.927093 0 0 1 -15.837167,7.1425602 V -3.7845323 Z"
       transform="matrix(-0.70247439,-0.71170903,0.70247439,-0.71170903,0,0)" />
  </g>
  <g
     inkscape:label="pivot"
     inkscape:groupmode="layer"
     id="layer1-8"
     style="display:none">
    <path
       id="path7049"
       style="color:#000000;fill:#ffffff;stroke:#000000;stroke-width:0.529167;stroke-linecap:round;stroke-linejoin:round;stroke-dasharray:none"
       d="m 2.7812233,2.5453018 a 0.54342047,0.54342047 0 0 0 -0.563274,0.52865 l -0.102836,3.9005371 a 0.67170465,0.67170465 0 0 0 0.956014,0.6263183 l 0.740524,-0.3462321 c 0.922831,1.9445055 1.405082,4.0741499 1.405082,6.2363119 a 0.79374999,0.79374999 0 0 0 0.792716,0.792716 0.79374999,0.79374999 0 0 0 0.794784,-0.792716 c 0,-2.394691 -0.533152,-4.7546326 -1.553911,-6.909139 l 0.77463,-0.3622518 A 0.67170465,0.67170465 0 0 0 6.1572443,5.0846817 L 3.0985163,2.6620906 A 0.54342047,0.54342047 0 0 0 2.7812233,2.5453018 Z" />
    <path
       id="path7057"
       style="color:#000000;fill:#ffffff;stroke:#000000;stroke-width:0.529167;stroke-linecap:round;stroke-linejoin:round;stroke-dasharray:none"
       d="m 14.15211,2.6500975 a 0.54342047,0.54342047 0 0 1 0.563274,0.52865 L 14.81822,7.0792846 A 0.67170465,0.67170465 0 0 1 13.862206,7.7056029 L 13.121682,7.3593708 C 12.198851,9.3038763 11.7166,11.433521 11.7166,13.595683 a 0.79374999,0.79374999 0 0 1 -0.792716,0.792716 0.79374999,0.79374999 0 0 1 -0.794785,-0.792716 c 0,-2.394691 0.533153,-4.7546329 1.553912,-6.9091393 L 10.908381,6.3242919 A 0.67170465,0.67170465 0 0 1 10.776089,5.1894774 L 13.834817,2.7668863 A 0.54342047,0.54342047 0 0 1 14.15211,2.6500975 Z" />
  </g>
  <g
     inkscape:groupmode="layer"
     id="layer3"
     inkscape:label="move"
     style="display:none">
    <path
       id="path7491"
       style="color:#000000;fill:#ffffff;stroke:#000000;stroke-width:0.529167;stroke-dasharray:none"
       d="M 8.4111144,0.94658386 A 0.45285038,0.45285038 0 0 0 8.0617817,1.1935973 L 6.6076069,4.1019469 A 0.55975387,0.55975387 0 0 0 7.1083516,4.9122333 H 7.8044331 V 7.8102477 H 4.9064188 V 7.1136494 A 0.55975528,0.55975528 0 0 0 4.3147236,6.5545104 0.55975528,0.55975528 0 0 0 4.0961323,6.6129047 L 1.1877827,8.0670795 a 0.45285153,0.45285153 0 0 0 0,0.8097697 L 4.0961323,10.331024 A 0.55975528,0.55975528 0 0 0 4.9064188,9.8302796 V 9.1341979 H 7.8044331 V 12.032213 H 7.1078348 a 0.55975387,0.55975387 0 0 0 -0.5007446,0.810286 l 1.4541748,2.90835 a 0.45285038,0.45285038 0 0 0 0.8102864,0 l 1.4541756,-2.90835 A 0.55975387,0.55975387 0 0 0 9.8249816,12.032213 H 9.1289001 V 9.1341979 h 2.8980149 v 0.6965987 a 0.55975528,0.55975528 0 0 0 0.591695,0.5591394 0.55975528,0.55975528 0 0 0 0.218591,-0.05839 l 2.90835,-1.454175 a 0.45285153,0.45285153 0 0 0 0,-0.8097697 L 12.837201,6.6134215 A 0.55975528,0.55975528 0 0 0 12.026915,7.1141661 V 7.8102477 H 9.1289001 V 4.9122333 H 9.8254984 A 0.55975387,0.55975387 0 0 0 10.326243,4.1019469 L 8.8720682,1.1935973 A 0.45285038,0.45285038 0 0 0 8.4111144,0.94658386 Z" />
  </g>
  <g
     inkscape:groupmode="layer"
     id="layer4"
     inkscape:label="amount"
     style="display:none">
    <g
       id="g7583"
       transform="matrix(1.1571781,0,0,1.1590796,-1.3307746,-0.29410818)"
       style="stroke-width:0.456915;stroke-dasharray:none">
      <path
         id="path7518-3"
         style="fill:#ffffff;stroke:#000000;stroke-width:0.456915;stroke-linecap:round;stroke-linejoin:round;stroke-dasharray:none"
         d="M 4.6830645,4.4361481 A 2.1486162,2.1527652 0 0 0 2.5348043,6.588557 2.1486162,2.1527652 0 0 0 3.4116453,8.322198 2.9850035,4.8569777 0 0 0 3.3285542,8.3954062 2.9850035,4.8569777 0 0 0 1.8358364,12.601492 H 4.8208537 7.8058709 A 2.9850035,4.8569777 0 0 0 6.3131538,8.3954062 2.9850035,4.8569777 0 0 0 6.0943615,8.2104955 2.1486162,2.1527652 0 0 0 6.8317424,6.5885538 2.1486162,2.1527652 0 0 0 4.6830645,4.4361449 Z" />
      <path
         id="path7578"
         style="fill:#ffffff;stroke:#000000;stroke-width:0.456915;stroke-linecap:round;stroke-linejoin:round;stroke-dasharray:none"
         d="M 11.974691,4.4361481 A 2.1486162,2.1527652 0 0 0 9.8264307,6.588557 2.1486162,2.1527652 0 0 0 10.703272,8.322198 2.9850035,4.8569777 0 0 0 10.62018,8.3954062 2.9850035,4.8569777 0 0 0 9.1274628,12.601492 H 12.11248 15.097497 A 2.9850035,4.8569777 0 0 0 13.60478,8.3954062 2.9850035,4.8569777 0 0 0 13.385988,8.2104955 2.1486162,2.1527652 0 0 0 14.123369,6.5885538 2.1486162,2.1527652 0 0 0 11.974691,4.4361449 Z" />
      <path
         id="path7518"
         style="fill:#ffffff;stroke:#000000;stroke-width:0.456915;stroke-linecap:round;stroke-linejoin:round;stroke-dasharray:none"
         d="M 8.2961345,2.5152866 A 2.6591926,2.6591926 0 0 0 5.6373821,5.174039 2.6591926,2.6591926 0 0 0 6.7225872,7.3155103 3.6943309,5.9995575 0 0 0 6.6197511,7.4059441 3.6943309,5.9995575 0 0 0 4.7723186,12.601492 H 8.4666668 12.161015 A 3.6943309,5.9995575 0 0 0 10.313582,7.4059441 3.6943309,5.9995575 0 0 0 10.042798,7.1775343 2.6591926,2.6591926 0 0 0 10.955404,5.174039 2.6591926,2.6591926 0 0 0 8.2961345,2.5152866 Z" />
    </g>
  </g>
  <g
     inkscape:groupmode="layer"
     id="layer5"
     inkscape:label="formation"
     style="display:none">
    <g
       id="g10954"
       transform="translate(0.27285918,-5.0301963)">
      <ellipse
         style="fill:#ffffff;stroke:#000000;stroke-width:0.529167;stroke-linecap:round;stroke-linejoin:round;stroke-dasharray:none"
         id="path7586"
         cx="2.6920297"
         cy="8.4666662"
         rx="1.8983123"
         ry="1.8987178" />
      <ellipse
         style="fill:#ffffff;stroke:#000000;stroke-width:0.529167;stroke-linecap:round;stroke-linejoin:round;stroke-dasharray:none"
         id="ellipse10935"
         cx="8.1938076"
         cy="8.4666662"
         rx="1.8983123"
         ry="1.8987178" />
      <ellipse
         style="fill:#ffffff;stroke:#000000;stroke-width:0.529167;stroke-linecap:round;stroke-linejoin:round;stroke-dasharray:none"
         id="ellipse10937"
         cx="13.695585"
         cy="8.4666662"
         rx="1.8983123"
         ry="1.8987178" />
    </g>
    <g
       id="g10962"
       transform="translate(0.27285918)">
      <ellipse
         style="fill:#ffffff;stroke:#000000;stroke-width:0.529167;stroke-linecap:round;stroke-linejoin:round;stroke-dasharray:none"
         id="ellipse10956"
         cx="2.6920297"
         cy="8.4666662"
         rx="1.8983123"
         ry="1.8987178" />
      <ellipse
         style="fill:#ffffff;stroke:#000000;stroke-width:0.529167;stroke-linecap:round;stroke-linejoin:round;stroke-dasharray:none"
         id="ellipse10958"
         cx="8.1938076"
         cy="8.4666662"
         rx="1.8983123"
         ry="1.8987178" />
      <ellipse
         style="fill:#ffffff;stroke:#000000;stroke-width:0.529167;stroke-linecap:round;stroke-linejoin:round;stroke-dasharray:none"
         id="ellipse10960"
         cx="13.695585"
         cy="8.4666662"
         rx="1.8983123"
         ry="1.8987178" />
    </g>
    <g
       id="g10978">
      <ellipse
         style="fill:#ffffff;stroke:#000000;stroke-width:0.529167;stroke-linecap:round;stroke-linejoin:round;stroke-dasharray:none"
         id="ellipse10964"
         cx="2.9648888"
         cy="13.496863"
         rx="1.8983123"
         ry="1.8987178" />
      <ellipse
         style="fill:#ffffff;stroke:#000000;stroke-width:0.529167;stroke-linecap:round;stroke-linejoin:round;stroke-dasharray:none"
         id="ellipse10966"
         cx="8.4666672"
         cy="13.496863"
         rx="1.8983123"
         ry="1.8987178" />
      <ellipse
         style="fill:#ffffff;stroke:#000000;stroke-width:0.529167;stroke-linecap:round;stroke-linejoin:round;stroke-dasharray:none"
         id="ellipse10968"
         cx="13.968445"
         cy="13.496863"
         rx="1.8983123"
         ry="1.8987178" />
    </g>
  </g>
  <g
     inkscape:groupmode="layer"
     id="layer8"
     inkscape:label="skirmishers"
     style="display:none">
    <ellipse
       style="fill:#ffffff;stroke:#000000;stroke-width:0.529167;stroke-linecap:round;stroke-linejoin:round;stroke-dasharray:none"
       id="path7586-9"
       cx="2.8076952"
       cy="4.5106263"
       rx="1.8983123"
       ry="1.8987178" />
    <ellipse
       style="fill:#ffffff;stroke:#000000;stroke-width:0.529167;stroke-linecap:round;stroke-linejoin:round;stroke-dasharray:none"
       id="ellipse10935-8"
       cx="8.309473"
       cy="2.5012934"
       rx="1.8983123"
       ry="1.8987178" />
    <ellipse
       style="fill:#ffffff;stroke:#000000;stroke-width:0.529167;stroke-linecap:round;stroke-linejoin:round;stroke-dasharray:none"
       id="ellipse10937-9"
       cx="14.380047"
       cy="2.8338943"
       rx="1.8983123"
       ry="1.8987178" />
    <ellipse
       style="fill:#ffffff;stroke:#000000;stroke-width:0.529167;stroke-linecap:round;stroke-linejoin:round;stroke-dasharray:none"
       id="ellipse10956-8"
       cx="4.9036107"
       cy="9.1609383"
       rx="1.8983123"
       ry="1.8987178" />
    <ellipse
       style="fill:#ffffff;stroke:#000000;stroke-width:0.529167;stroke-linecap:round;stroke-linejoin:round;stroke-dasharray:none"
       id="ellipse10958-9"
       cx="9.6418285"
       cy="7.1174598"
       rx="1.8983123"
       ry="1.8987178" />
    <ellipse
       style="fill:#ffffff;stroke:#000000;stroke-width:0.529167;stroke-linecap:round;stroke-linejoin:round;stroke-dasharray:none"
       id="ellipse10960-0"
       cx="13.978488"
       cy="9.1480646"
       rx="1.8983123"
       ry="1.8987178" />
    <ellipse
       style="fill:#ffffff;stroke:#000000;stroke-width:0.529167;stroke-linecap:round;stroke-linejoin:round;stroke-dasharray:none"
       id="ellipse10964-8"
       cx="2.4933078"
       cy="13.496863"
       rx="1.8983123"
       ry="1.8987178" />
    <ellipse
       style="fill:#ffffff;stroke:#000000;stroke-width:0.529167;stroke-linecap:round;stroke-linejoin:round;stroke-dasharray:none"
       id="ellipse10966-4"
       cx="8.0476427"
       cy="13.253315"
       rx="1.8983123"
       ry="1.8987178" />
    <ellipse
       style="fill:#ffffff;stroke:#000000;stroke-width:0.529167;stroke-linecap:round;stroke-linejoin:round;stroke-dasharray:none"
       id="ellipse10968-4"
       cx="13.26852"
       cy="14.071293"
       rx="1.8983123"
       ry="1.8987178" />
  </g>
  <g
     inkscape:groupmode="layer"
     id="layer9"
     inkscape:label="define"
     style="display:none">
    <path
       style="color:#000000;fill:#ff5555;stroke-width:0.529167;stroke-linecap:round;stroke-linejoin:round;stroke-dasharray:none"
       d="M 8.4664081,15.278133 V 1.6546838"
       id="path11304" />
    <path
       id="path11306"
       style="color:#000000;fill:#ffffff;stroke:#000000;stroke-width:0.529167;stroke-linecap:round;stroke-linejoin:round;stroke-dasharray:none"
       d="M 8.4664083,0.86118773 A 0.79374999,0.79374999 0 0 0 7.6736918,1.6539042 V 2.485378 C 4.9827777,2.8413226 2.8413226,4.9827777 2.485378,7.6736918 H 1.6539042 A 0.79374999,0.79374999 0 0 0 0.86118773,8.4664083 0.79374999,0.79374999 0 0 0 1.6539042,9.2596415 H 2.485378 c 0.35598,2.6908725 2.4974294,4.8318565 5.1883138,5.1877975 v 0.831474 a 0.79374999,0.79374999 0 0 0 0.7927165,0.793233 0.79374999,0.79374999 0 0 0 0.7932332,-0.793233 V 14.447439 C 11.950484,14.091463 14.091463,11.950484 14.447439,9.2596415 h 0.831474 A 0.79374999,0.79374999 0 0 0 16.072146,8.4664083 0.79374999,0.79374999 0 0 0 15.278913,7.6736918 H 14.447439 C 14.091498,4.9828074 11.950514,2.841358 9.2596415,2.485378 V 1.6539042 A 0.79374999,0.79374999 0 0 0 8.4664083,0.86118773 Z m 0,3.16001387 a 4.4451818,4.4451818 0 0 1 0.7932332,0.071313 v -0.00155 c 1.8259925,0.3255023 3.2572335,1.7567316 3.5827275,3.5827271 h -0.0021 a 4.4451818,4.4451818 0 0 1 0.07131,0.7927165 4.4451818,4.4451818 0 0 1 -0.07441,0.7932332 h 0.0052 c -0.3255,1.8259896 -1.756738,3.2572276 -3.5827275,3.5827276 v -0.0052 a 4.4451818,4.4451818 0 0 1 -0.7932332,0.07441 4.4451818,4.4451818 0 0 1 -0.7927165,-0.07441 v 0.0052 C 5.8476963,12.516875 4.416467,11.085634 4.0909647,9.2596415 h 0.00465 A 4.4451818,4.4451818 0 0 1 4.0212016,8.4664083 4.4451818,4.4451818 0 0 1 4.0956156,7.6736918 h -0.00465 C 4.4164611,5.8476927 5.8476927,4.4164611 7.6736918,4.0909647 v 0.00465 a 4.4451818,4.4451818 0 0 1 0.7927165,-0.074413 z" />
    <path
       style="color:#000000;fill:#ff5555;stroke-width:0.529167;stroke-linecap:round;stroke-linejoin:round;stroke-dasharray:none"
       d="M 1.6546836,8.4664083 H 15.278133"
       id="path11310" />
    <path
       style="color:#000000;fill:#ffffff;stroke:#000000;stroke-width:0.529167;stroke-linecap:round;stroke-linejoin:round;stroke-dasharray:none"
       d="m 8.4665385,6.4411478 c -1.1090293,0 -2.0253906,0.9163614 -2.0253907,2.0253907 0,1.1090293 0.9163614,2.0253915 2.0253907,2.0253915 1.1090293,0 2.0253915,-0.9163622 2.0253915,-2.0253915 0,-1.1090293 -0.9163622,-2.0253906 -2.0253915,-2.0253907 z m 0,1.5878907 c 0.2510814,0 0.4375,0.1864185 0.4375,0.4375 0,0.2510814 -0.1864186,0.4375 -0.4375,0.4375 -0.2510815,0 -0.4375,-0.1864186 -0.4375,-0.4375 0,-0.2510815 0.1864185,-0.4375 0.4375,-0.4375 z"
       id="path11341" />
  </g>
  <g
     inkscape:groupmode="layer"
     id="layer7"
     inkscape:label="plus"
     style="display:none">
    <path
       id="rect10890"
       style="fill:#ffffff;fill-opacity:1;stroke:#000000;stroke-width:0.529167;stroke-linecap:round;stroke-linejoin:round;stroke-dasharray:none"
       d="m 1.5368571,-6.8553955 h 5.3185384 v 5.3185384 h 3.2225425 v -5.3185384 h 5.318538 v -3.2225425 h -5.318538 v -5.318538 H 6.8553955 v 5.318538 H 1.5368571 Z"
       transform="rotate(90)" />
  </g>
  <g
     inkscape:groupmode="layer"
     id="layer6"
     inkscape:label="check"
     style="display:inline">
    <path
       style="color:#000000;fill:#ffffff;fill-opacity:1;stroke:#000000;stroke-width:0.529167;stroke-linecap:round;stroke-linejoin:round;stroke-dasharray:none"
       d="M 14.37799,2.8743632 13.493502,3.7545479 6.668209,10.540072 3.4398304,7.3286871 2.5553431,6.4503438 0.79373919,8.2180788 1.6800692,9.0982636 6.668209,14.05897 15.255107,5.5222829 16.139594,4.6420982 Z"
       id="path7899" />
  </g>
</svg>
